<svg width="286" height="279" viewBox="0 0 286 279" fill="none" xmlns="http://www.w3.org/2000/svg">
<mask id="mask0_3_2" style="mask-type:alpha" maskUnits="userSpaceOnUse" x="31" y="11" width="218" height="249">
<path d="M247.351 215.794C250.974 180.794 241.494 170.037 206.018 180.436C203.443 181.149 193.529 173.826 193.029 172.361C192.454 170.561 200.716 179.126 203.692 177.694C208.405 175.246 212.976 173.109 216.108 170.17C217.536 167.926 220.646 165.203 221.582 156.164C224.044 132.384 192.981 117.143 193.037 116.605C193.103 115.96 195.76 113.407 196.529 105.983C198.378 88.121 179.745 85.322 175.055 84.4014C174.194 84.3123 166.777 87.6771 159.571 88.9974C157.352 89.4203 156.061 89.2866 156.139 88.5334C156.206 87.8878 156.562 87.5984 159.256 86.7897C164.913 84.7332 174.06 81.4016 174.811 74.1533C177.339 49.7278 132.314 12.9742 121.123 11.8157C119.939 11.6932 118.989 12.4649 118.878 13.5409C118.756 14.7245 121.928 15.5967 121.304 21.6223C120.38 30.5532 109.134 41.7178 108.176 50.9715C107.294 59.4961 116.747 61.2578 123.621 58.8414C128.741 57.1252 128.104 65.3019 115.485 66.2716C89.3985 68.217 77.1631 93.0665 88.2444 105.648C53.2949 106.479 55.8003 140.181 71.2475 151.259C76.7164 155.181 83.4284 155.456 87.8401 155.913C88.5933 155.991 89.8733 156.232 89.7842 157.093C89.7063 157.846 88.7044 158.069 87.736 157.968C80.6974 157.675 77.0634 156.848 70.4269 158.134C45.0049 163.06 26.9653 191.091 32.2133 212.323C45.9495 267.895 240.537 281.617 247.351 215.794ZM136.687 214.993C117.211 212.977 92.6494 181.026 93.2732 175.001C93.5405 172.418 95.4254 172.07 97.7927 172.315C104.787 173.039 121.198 183.018 134.326 184.377C147.561 185.747 163.292 178.519 170.286 179.243C172.653 179.489 174.2 180.301 173.944 182.776C173.32 188.802 155.948 216.987 136.687 214.993Z" fill="black"/>
</mask>
<g mask="url(#mask0_3_2)">
<path d="M239.422 216.595L26.4935 83.104L23.6316 82.8077C6.06196 126.788 0.123362 170.241 -1.13991 171.267C-2.40319 172.293 -1.34061 215.117 -0.651408 236.4C20.006 251.074 61.8339 281.051 63.8864 283.578C66.4521 286.736 157.195 290.345 162.918 290.938C167.498 291.412 213.151 280.711 235.405 275.301L239.422 216.595Z" fill="black"/>
</g>
<path d="M233.51 51.4852C283.497 100.101 283.497 178.923 233.51 227.538C183.523 276.154 102.477 276.154 52.4903 227.538C2.50322 178.923 2.50322 100.101 52.4903 51.4852C102.477 2.86955 183.523 2.86955 233.51 51.4852Z" stroke="#803FE8" stroke-width="28.772" stroke-linecap="round" stroke-linejoin="round"/>
<mask id="mask1_3_2" style="mask-type:alpha" maskUnits="userSpaceOnUse" x="31" y="7" width="215" height="253">
<path d="M244.811 216.165C248.392 181.569 239.021 170.935 203.954 181.215C201.408 181.919 197.297 183.213 196.802 181.765C196.233 179.986 198.713 179.92 201.654 178.504C206.312 176.084 210.831 173.972 213.927 171.067C215.339 168.848 218.413 166.156 219.338 157.222C221.771 133.716 191.066 118.65 191.121 118.118C211.701 94.077 187.998 74.4674 154.975 89.6341C154.975 89.6341 155.142 90.7264 157.804 89.927C163.397 87.8942 179.548 79.7915 180.866 67.0611C183.366 42.9168 133.867 9.29862 122.805 8.15346C121.635 8.03234 108.157 3.2975 117.816 16.24C119.764 18.8504 120.831 18.2721 120.214 24.2284C119.3 33.0565 108.184 44.0926 107.237 53.2398C106.365 61.6663 115.71 63.4078 122.505 61.0193C127.565 59.3228 126.936 67.4053 114.463 68.3639C88.6759 70.287 76.5812 94.8505 87.535 107.287C52.9878 108.109 55.4643 141.423 70.7337 152.373C76.1397 156.25 82.7745 156.522 87.1354 156.974C87.8799 157.051 89.1453 157.289 89.0572 158.14C88.9801 158.885 87.9898 159.105 87.0325 159.005C80.0749 158.715 76.4828 157.898 69.9226 159.169C44.7931 164.038 26.9611 191.747 32.1488 212.735C45.7269 267.668 238.075 281.232 244.811 216.165ZM141.108 221.156C121.857 219.163 100.328 190.33 100.945 184.374C101.209 181.821 103.072 181.477 105.412 181.719C112.326 182.435 125.798 189.548 138.774 190.891C151.857 192.246 164.656 187.852 171.57 188.568C173.91 188.81 175.439 189.614 175.186 192.06C174.569 198.016 160.147 223.127 141.108 221.156Z" fill="black"/>
</mask>
<g mask="url(#mask1_3_2)">
<path d="M229.601 218.38L59.2171 108.882L93.1308 51.7794C95.7978 44.4307 101.444 29.4798 102.693 28.4653C103.941 27.4509 104.337 3.37844 108.743 -2.36051L153.275 9.39782C161.435 22.6329 177.698 49.6689 177.464 51.9321C177.23 54.1953 212.124 94.5973 229.601 114.515C229.601 114.515 254.314 159.987 244.911 187.583C239.289 204.08 229.601 218.38 229.601 218.38Z" fill="black"/>
</g>
<path d="M232.688 213.608L34.7021 95.5142" stroke="#803FE8" stroke-width="28.772" stroke-linecap="round" stroke-linejoin="round"/>
<ellipse cx="112.829" cy="119.251" rx="10.9351" ry="14.2156" transform="rotate(11.0196 112.829 119.251)" fill="black"/>
<path d="M111.165 140.316C101.239 139.329 94.6461 128.915 95.7994 117.32C96.9615 105.638 105.53 97.0867 115.368 98.0653C125.206 99.0439 131.922 109.115 130.76 120.798C129.624 132.217 121.091 141.304 111.165 140.316ZM160.707 145.244C150.781 144.257 144.293 133.676 145.429 122.257C146.591 110.574 155.159 102.023 164.91 102.993C174.748 103.972 181.551 114.052 180.389 125.734C179.236 137.329 170.633 146.232 160.707 145.244ZM111.96 132.323C116.616 132.786 120.908 127.092 121.616 119.977C122.323 112.862 119.219 106.61 114.564 106.147C109.996 105.692 105.651 111.026 104.926 118.317C104.21 125.52 107.305 131.86 111.96 132.323ZM161.502 137.251C166.158 137.714 170.529 132.117 171.245 124.914C171.97 117.623 168.761 111.538 164.106 111.075C159.45 110.611 155.255 116.226 154.556 123.254C153.848 130.369 156.847 136.788 161.502 137.251Z" fill="white"/>
</svg>
